<?xml version="1.0" encoding="UTF-8" standalone="no"?>
<!DOCTYPE svg PUBLIC "-//W3C//DTD SVG 1.1//EN"
 "http://www.w3.org/Graphics/SVG/1.1/DTD/svg11.dtd">
<!-- Generated by graphviz version 2.40.1 (20161225.0304)
 -->
<!-- Title: dependencies Pages: 1 -->
<svg width="1432pt" height="284pt"
 viewBox="0.00 0.00 1432.00 284.00" xmlns="http://www.w3.org/2000/svg" xmlns:xlink="http://www.w3.org/1999/xlink">
<g id="graph0" class="graph" transform="scale(1 1) rotate(0) translate(4 280)">
<title>dependencies</title>
<polygon fill="#ffffff" stroke="transparent" points="-4,4 -4,-280 1428,-280 1428,4 -4,4"/>
<text text-anchor="start" x="691.0091" y="-42.4" font-family="sans-serif" font-weight="bold" font-size="14.00" fill="#000000">Legend</text>
<polygon fill="#ffffb3" stroke="transparent" points="478,-10 478,-30 498,-30 498,-10 478,-10"/>
<text text-anchor="start" x="501.629" y="-15.4" font-family="sans-serif" font-size="14.00" fill="#000000"> &#160;Declarations</text>
<polygon fill="#8dd3c7" stroke="transparent" points="591,-10 591,-30 611,-30 611,-10 591,-10"/>
<text text-anchor="start" x="614.7251" y="-15.4" font-family="sans-serif" font-size="14.00" fill="#000000"> &#160;Module</text>
<polygon fill="#80b1d3" stroke="transparent" points="677,-10 677,-30 697,-30 697,-10 677,-10"/>
<text text-anchor="start" x="700.7812" y="-15.4" font-family="sans-serif" font-size="14.00" fill="#000000"> &#160;Bootstrap</text>
<polygon fill="#fdb462" stroke="transparent" points="774,-10 774,-30 794,-30 794,-10 774,-10"/>
<text text-anchor="start" x="797.6732" y="-15.4" font-family="sans-serif" font-size="14.00" fill="#000000"> &#160;Providers</text>
<polygon fill="#fb8072" stroke="transparent" points="870,-10 870,-30 890,-30 890,-10 870,-10"/>
<text text-anchor="start" x="893.7258" y="-15.4" font-family="sans-serif" font-size="14.00" fill="#000000"> &#160;Exports</text>
<g id="clust1" class="cluster">
<title>cluster_AppModule</title>
<polygon fill="none" stroke="#000000" stroke-dasharray="1,5" points="8,-70 8,-268 520,-268 520,-70 8,-70"/>
</g>
<g id="clust2" class="cluster">
<title>cluster_AppModule_declarations</title>
<polygon fill="none" stroke="#000000" points="168,-78 168,-130 512,-130 512,-78 168,-78"/>
</g>
<g id="clust6" class="cluster">
<title>cluster_AppModule_imports</title>
<polygon fill="none" stroke="#000000" points="16,-78 16,-130 160,-130 160,-78 16,-78"/>
</g>
<g id="clust8" class="cluster">
<title>cluster_AppModule_bootstrap</title>
<polygon fill="none" stroke="#000000" points="229,-208 229,-260 353,-260 353,-208 229,-208"/>
</g>
<g id="clust16" class="cluster">
<title>cluster_ModalHelpPageModule</title>
<polygon fill="none" stroke="#000000" stroke-dasharray="1,5" points="528,-143 528,-195 694,-195 694,-143 528,-143"/>
</g>
<g id="clust23" class="cluster">
<title>cluster_ModalPageModule</title>
<polygon fill="none" stroke="#000000" stroke-dasharray="1,5" points="702,-143 702,-195 842,-195 842,-143 702,-143"/>
</g>
<g id="clust30" class="cluster">
<title>cluster_Tab1PageModule</title>
<polygon fill="none" stroke="#000000" stroke-dasharray="1,5" points="850,-70 850,-195 982,-195 982,-70 850,-70"/>
</g>
<g id="clust31" class="cluster">
<title>cluster_Tab1PageModule_declarations</title>
<polygon fill="none" stroke="#000000" points="872,-78 872,-130 960,-130 960,-78 872,-78"/>
</g>
<g id="clust37" class="cluster">
<title>cluster_Tab2PageModule</title>
<polygon fill="none" stroke="#000000" stroke-dasharray="1,5" points="990,-70 990,-195 1122,-195 1122,-70 990,-70"/>
</g>
<g id="clust38" class="cluster">
<title>cluster_Tab2PageModule_declarations</title>
<polygon fill="none" stroke="#000000" points="1012,-78 1012,-130 1100,-130 1100,-78 1012,-78"/>
</g>
<g id="clust44" class="cluster">
<title>cluster_TabsPageModule</title>
<polygon fill="none" stroke="#000000" stroke-dasharray="1,5" points="1130,-70 1130,-195 1416,-195 1416,-70 1130,-70"/>
</g>
<g id="clust45" class="cluster">
<title>cluster_TabsPageModule_declarations</title>
<polygon fill="none" stroke="#000000" points="1322,-78 1322,-130 1408,-130 1408,-78 1322,-78"/>
</g>
<g id="clust47" class="cluster">
<title>cluster_TabsPageModule_imports</title>
<polygon fill="none" stroke="#000000" points="1138,-78 1138,-130 1314,-130 1314,-78 1138,-78"/>
</g>
<!-- AppComponent -->
<g id="node1" class="node">
<title>AppComponent</title>
<polygon fill="#ffffb3" stroke="#000000" points="281.9399,-122 176.0601,-122 176.0601,-86 281.9399,-86 281.9399,-122"/>
<text text-anchor="middle" x="229" y="-99.8" font-family="Times,serif" font-size="14.00" fill="#000000">AppComponent</text>
</g>
<!-- AppModule -->
<g id="node4" class="node">
<title>AppModule</title>
<polygon fill="#8dd3c7" stroke="#000000" points="332.6571,-187 329.6571,-191 308.6571,-191 305.6571,-187 249.3429,-187 249.3429,-151 332.6571,-151 332.6571,-187"/>
<text text-anchor="middle" x="291" y="-164.8" font-family="Times,serif" font-size="14.00" fill="#000000">AppModule</text>
</g>
<!-- AppComponent&#45;&gt;AppModule -->
<g id="edge1" class="edge">
<title>AppComponent&#45;&gt;AppModule</title>
<path fill="none" stroke="#000000" d="M265.4457,-122.1061C265.4457,-122.1061 265.4457,-140.991 265.4457,-140.991"/>
<polygon fill="#000000" stroke="#000000" points="261.9457,-140.9909 265.4457,-150.991 268.9457,-140.991 261.9457,-140.9909"/>
</g>
<!-- ModalHelpPage -->
<g id="node2" class="node">
<title>ModalHelpPage</title>
<polygon fill="#ffffb3" stroke="#000000" points="406.4734,-122 299.5266,-122 299.5266,-86 406.4734,-86 406.4734,-122"/>
<text text-anchor="middle" x="353" y="-99.8" font-family="Times,serif" font-size="14.00" fill="#000000">ModalHelpPage</text>
</g>
<!-- ModalHelpPage&#45;&gt;AppModule -->
<g id="edge2" class="edge">
<title>ModalHelpPage&#45;&gt;AppModule</title>
<path fill="none" stroke="#000000" d="M316.1708,-122.1061C316.1708,-122.1061 316.1708,-140.991 316.1708,-140.991"/>
<polygon fill="#000000" stroke="#000000" points="312.6708,-140.9909 316.1708,-150.991 319.6708,-140.991 312.6708,-140.9909"/>
</g>
<!-- ModalHelpPageModule -->
<g id="node7" class="node">
<title>ModalHelpPageModule</title>
<polygon fill="#8dd3c7" stroke="#000000" points="686.024,-187 683.024,-191 662.024,-191 659.024,-187 535.976,-187 535.976,-151 686.024,-151 686.024,-187"/>
<text text-anchor="middle" x="611" y="-164.8" font-family="Times,serif" font-size="14.00" fill="#000000">ModalHelpPageModule</text>
</g>
<!-- ModalHelpPage&#45;&gt;ModalHelpPageModule -->
<g id="edge6" class="edge">
<title>ModalHelpPage&#45;&gt;ModalHelpPageModule</title>
<path fill="none" stroke="#000000" d="M375.9781,-122.0225C375.9781,-139.3734 375.9781,-163 375.9781,-163 375.9781,-163 525.6678,-163 525.6678,-163"/>
<polygon fill="#000000" stroke="#000000" points="525.6679,-166.5001 535.6678,-163 525.6678,-159.5001 525.6679,-166.5001"/>
</g>
<!-- ModalPage -->
<g id="node3" class="node">
<title>ModalPage</title>
<polygon fill="#ffffb3" stroke="#000000" points="503.762,-122 424.238,-122 424.238,-86 503.762,-86 503.762,-122"/>
<text text-anchor="middle" x="464" y="-99.8" font-family="Times,serif" font-size="14.00" fill="#000000">ModalPage</text>
</g>
<!-- ModalPage&#45;&gt;AppModule -->
<g id="edge3" class="edge">
<title>ModalPage&#45;&gt;AppModule</title>
<path fill="none" stroke="#000000" d="M464,-122.2843C464,-143.3211 464,-175 464,-175 464,-175 342.8785,-175 342.8785,-175"/>
<polygon fill="#000000" stroke="#000000" points="342.8785,-171.5001 332.8785,-175 342.8784,-178.5001 342.8785,-171.5001"/>
</g>
<!-- ModalPageModule -->
<g id="node8" class="node">
<title>ModalPageModule</title>
<polygon fill="#8dd3c7" stroke="#000000" points="833.8118,-187 830.8118,-191 809.8118,-191 806.8118,-187 710.1882,-187 710.1882,-151 833.8118,-151 833.8118,-187"/>
<text text-anchor="middle" x="772" y="-164.8" font-family="Times,serif" font-size="14.00" fill="#000000">ModalPageModule</text>
</g>
<!-- ModalPage&#45;&gt;ModalPageModule -->
<g id="edge7" class="edge">
<title>ModalPage&#45;&gt;ModalPageModule</title>
<path fill="none" stroke="#000000" d="M503.9499,-104C587.2871,-104 772,-104 772,-104 772,-104 772,-140.8939 772,-140.8939"/>
<polygon fill="#000000" stroke="#000000" points="768.5001,-140.8938 772,-150.8939 775.5001,-140.8939 768.5001,-140.8938"/>
</g>
<!-- AppComponent  -->
<g id="node6" class="node">
<title>AppComponent </title>
<polygon fill="#80b1d3" stroke="#000000" points="345.439,-252 236.561,-252 236.561,-216 345.439,-216 345.439,-252"/>
<text text-anchor="middle" x="291" y="-229.8" font-family="Times,serif" font-size="14.00" fill="#000000">AppComponent </text>
</g>
<!-- AppModule&#45;&gt;AppComponent  -->
<g id="edge5" class="edge">
<title>AppModule&#45;&gt;AppComponent </title>
<path fill="none" stroke="#000000" stroke-dasharray="1,5" d="M291,-187.1061C291,-187.1061 291,-205.991 291,-205.991"/>
<polygon fill="#000000" stroke="#000000" points="287.5001,-205.9909 291,-215.991 294.5001,-205.991 287.5001,-205.9909"/>
</g>
<!-- AppRoutingModule -->
<g id="node5" class="node">
<title>AppRoutingModule</title>
<polygon fill="#8dd3c7" stroke="#000000" points="152.2744,-122 149.2744,-126 128.2744,-126 125.2744,-122 23.7256,-122 23.7256,-86 152.2744,-86 152.2744,-122"/>
<text text-anchor="middle" x="88" y="-99.8" font-family="Times,serif" font-size="14.00" fill="#000000">AppRoutingModule</text>
</g>
<!-- AppRoutingModule&#45;&gt;AppModule -->
<g id="edge4" class="edge">
<title>AppRoutingModule&#45;&gt;AppModule</title>
<path fill="none" stroke="#000000" d="M88,-122.1061C88,-141.3391 88,-169 88,-169 88,-169 238.9383,-169 238.9383,-169"/>
<polygon fill="#000000" stroke="#000000" points="238.9383,-172.5001 248.9383,-169 238.9382,-165.5001 238.9383,-172.5001"/>
</g>
<!-- Tab1Page -->
<g id="node9" class="node">
<title>Tab1Page</title>
<polygon fill="#ffffb3" stroke="#000000" points="951.979,-122 880.021,-122 880.021,-86 951.979,-86 951.979,-122"/>
<text text-anchor="middle" x="916" y="-99.8" font-family="Times,serif" font-size="14.00" fill="#000000">Tab1Page</text>
</g>
<!-- Tab1PageModule -->
<g id="node10" class="node">
<title>Tab1PageModule</title>
<polygon fill="#8dd3c7" stroke="#000000" points="973.5298,-187 970.5298,-191 949.5298,-191 946.5298,-187 858.4702,-187 858.4702,-151 973.5298,-151 973.5298,-187"/>
<text text-anchor="middle" x="916" y="-164.8" font-family="Times,serif" font-size="14.00" fill="#000000">Tab1PageModule</text>
</g>
<!-- Tab1Page&#45;&gt;Tab1PageModule -->
<g id="edge8" class="edge">
<title>Tab1Page&#45;&gt;Tab1PageModule</title>
<path fill="none" stroke="#000000" d="M916,-122.1061C916,-122.1061 916,-140.991 916,-140.991"/>
<polygon fill="#000000" stroke="#000000" points="912.5001,-140.9909 916,-150.991 919.5001,-140.991 912.5001,-140.9909"/>
</g>
<!-- Tab2Page -->
<g id="node11" class="node">
<title>Tab2Page</title>
<polygon fill="#ffffb3" stroke="#000000" points="1091.979,-122 1020.021,-122 1020.021,-86 1091.979,-86 1091.979,-122"/>
<text text-anchor="middle" x="1056" y="-99.8" font-family="Times,serif" font-size="14.00" fill="#000000">Tab2Page</text>
</g>
<!-- Tab2PageModule -->
<g id="node12" class="node">
<title>Tab2PageModule</title>
<polygon fill="#8dd3c7" stroke="#000000" points="1113.5298,-187 1110.5298,-191 1089.5298,-191 1086.5298,-187 998.4702,-187 998.4702,-151 1113.5298,-151 1113.5298,-187"/>
<text text-anchor="middle" x="1056" y="-164.8" font-family="Times,serif" font-size="14.00" fill="#000000">Tab2PageModule</text>
</g>
<!-- Tab2Page&#45;&gt;Tab2PageModule -->
<g id="edge9" class="edge">
<title>Tab2Page&#45;&gt;Tab2PageModule</title>
<path fill="none" stroke="#000000" d="M1056,-122.1061C1056,-122.1061 1056,-140.991 1056,-140.991"/>
<polygon fill="#000000" stroke="#000000" points="1052.5001,-140.9909 1056,-150.991 1059.5001,-140.991 1052.5001,-140.9909"/>
</g>
<!-- TabsPage -->
<g id="node13" class="node">
<title>TabsPage</title>
<polygon fill="#ffffb3" stroke="#000000" points="1400.4249,-122 1329.5751,-122 1329.5751,-86 1400.4249,-86 1400.4249,-122"/>
<text text-anchor="middle" x="1365" y="-99.8" font-family="Times,serif" font-size="14.00" fill="#000000">TabsPage</text>
</g>
<!-- TabsPageModule -->
<g id="node14" class="node">
<title>TabsPageModule</title>
<polygon fill="#8dd3c7" stroke="#000000" points="1344.9734,-187 1341.9734,-191 1320.9734,-191 1317.9734,-187 1231.0266,-187 1231.0266,-151 1344.9734,-151 1344.9734,-187"/>
<text text-anchor="middle" x="1288" y="-164.8" font-family="Times,serif" font-size="14.00" fill="#000000">TabsPageModule</text>
</g>
<!-- TabsPage&#45;&gt;TabsPageModule -->
<g id="edge10" class="edge">
<title>TabsPage&#45;&gt;TabsPageModule</title>
<path fill="none" stroke="#000000" d="M1337.3875,-122.1061C1337.3875,-122.1061 1337.3875,-140.991 1337.3875,-140.991"/>
<polygon fill="#000000" stroke="#000000" points="1333.8875,-140.9909 1337.3875,-150.991 1340.8875,-140.991 1333.8875,-140.9909"/>
</g>
<!-- TabsPageRoutingModule -->
<g id="node15" class="node">
<title>TabsPageRoutingModule</title>
<polygon fill="#8dd3c7" stroke="#000000" points="1305.5912,-122 1302.5912,-126 1281.5912,-126 1278.5912,-122 1146.4088,-122 1146.4088,-86 1305.5912,-86 1305.5912,-122"/>
<text text-anchor="middle" x="1226" y="-99.8" font-family="Times,serif" font-size="14.00" fill="#000000">TabsPageRoutingModule</text>
</g>
<!-- TabsPageRoutingModule&#45;&gt;TabsPageModule -->
<g id="edge11" class="edge">
<title>TabsPageRoutingModule&#45;&gt;TabsPageModule</title>
<path fill="none" stroke="#000000" d="M1268.2795,-122.1061C1268.2795,-122.1061 1268.2795,-140.991 1268.2795,-140.991"/>
<polygon fill="#000000" stroke="#000000" points="1264.7795,-140.9909 1268.2795,-150.991 1271.7795,-140.991 1264.7795,-140.9909"/>
</g>
</g>
</svg>
