<?xml version="1.0" encoding="UTF-8" standalone="no"?>
<!DOCTYPE svg PUBLIC "-//W3C//DTD SVG 1.1//EN"
 "http://www.w3.org/Graphics/SVG/1.1/DTD/svg11.dtd">
<!-- Generated by graphviz version 2.40.1 (20161225.0304)
 -->
<!-- Title: dependencies Pages: 1 -->
<svg width="536pt" height="284pt"
 viewBox="0.00 0.00 536.00 284.00" xmlns="http://www.w3.org/2000/svg" xmlns:xlink="http://www.w3.org/1999/xlink">
<g id="graph0" class="graph" transform="scale(1 1) rotate(0) translate(4 280)">
<title>dependencies</title>
<polygon fill="#ffffff" stroke="transparent" points="-4,4 -4,-280 532,-280 532,4 -4,4"/>
<text text-anchor="start" x="243.0091" y="-42.4" font-family="sans-serif" font-weight="bold" font-size="14.00" fill="#000000">Legend</text>
<polygon fill="#ffffb3" stroke="transparent" points="30,-10 30,-30 50,-30 50,-10 30,-10"/>
<text text-anchor="start" x="53.629" y="-15.4" font-family="sans-serif" font-size="14.00" fill="#000000"> &#160;Declarations</text>
<polygon fill="#8dd3c7" stroke="transparent" points="143,-10 143,-30 163,-30 163,-10 143,-10"/>
<text text-anchor="start" x="166.7251" y="-15.4" font-family="sans-serif" font-size="14.00" fill="#000000"> &#160;Module</text>
<polygon fill="#80b1d3" stroke="transparent" points="229,-10 229,-30 249,-30 249,-10 229,-10"/>
<text text-anchor="start" x="252.7812" y="-15.4" font-family="sans-serif" font-size="14.00" fill="#000000"> &#160;Bootstrap</text>
<polygon fill="#fdb462" stroke="transparent" points="326,-10 326,-30 346,-30 346,-10 326,-10"/>
<text text-anchor="start" x="349.6732" y="-15.4" font-family="sans-serif" font-size="14.00" fill="#000000"> &#160;Providers</text>
<polygon fill="#fb8072" stroke="transparent" points="422,-10 422,-30 442,-30 442,-10 422,-10"/>
<text text-anchor="start" x="445.7258" y="-15.4" font-family="sans-serif" font-size="14.00" fill="#000000"> &#160;Exports</text>
<g id="clust1" class="cluster">
<title>cluster_AppModule</title>
<polygon fill="none" stroke="#000000" stroke-dasharray="1,5" points="8,-70 8,-268 520,-268 520,-70 8,-70"/>
</g>
<g id="clust2" class="cluster">
<title>cluster_AppModule_declarations</title>
<polygon fill="none" stroke="#000000" points="168,-78 168,-130 512,-130 512,-78 168,-78"/>
</g>
<g id="clust6" class="cluster">
<title>cluster_AppModule_imports</title>
<polygon fill="none" stroke="#000000" points="16,-78 16,-130 160,-130 160,-78 16,-78"/>
</g>
<g id="clust8" class="cluster">
<title>cluster_AppModule_bootstrap</title>
<polygon fill="none" stroke="#000000" points="209,-208 209,-260 333,-260 333,-208 209,-208"/>
</g>
<!-- AppComponent -->
<g id="node1" class="node">
<title>AppComponent</title>
<polygon fill="#ffffb3" stroke="#000000" points="503.9399,-122 398.0601,-122 398.0601,-86 503.9399,-86 503.9399,-122"/>
<text text-anchor="middle" x="451" y="-99.8" font-family="Times,serif" font-size="14.00" fill="#000000">AppComponent</text>
</g>
<!-- AppModule -->
<g id="node4" class="node">
<title>AppModule</title>
<polygon fill="#8dd3c7" stroke="#000000" points="312.6571,-187 309.6571,-191 288.6571,-191 285.6571,-187 229.3429,-187 229.3429,-151 312.6571,-151 312.6571,-187"/>
<text text-anchor="middle" x="271" y="-164.8" font-family="Times,serif" font-size="14.00" fill="#000000">AppModule</text>
</g>
<!-- AppComponent&#45;&gt;AppModule -->
<g id="edge1" class="edge">
<title>AppComponent&#45;&gt;AppModule</title>
<path fill="none" stroke="#000000" d="M451,-122.1061C451,-141.3391 451,-169 451,-169 451,-169 322.748,-169 322.748,-169"/>
<polygon fill="#000000" stroke="#000000" points="322.7481,-165.5001 312.748,-169 322.748,-172.5001 322.7481,-165.5001"/>
</g>
<!-- ModalHelpPage -->
<g id="node2" class="node">
<title>ModalHelpPage</title>
<polygon fill="#ffffb3" stroke="#000000" points="380.4734,-122 273.5266,-122 273.5266,-86 380.4734,-86 380.4734,-122"/>
<text text-anchor="middle" x="327" y="-99.8" font-family="Times,serif" font-size="14.00" fill="#000000">ModalHelpPage</text>
</g>
<!-- ModalHelpPage&#45;&gt;AppModule -->
<g id="edge2" class="edge">
<title>ModalHelpPage&#45;&gt;AppModule</title>
<path fill="none" stroke="#000000" d="M293.1708,-122.1061C293.1708,-122.1061 293.1708,-140.991 293.1708,-140.991"/>
<polygon fill="#000000" stroke="#000000" points="289.6708,-140.9909 293.1708,-150.991 296.6708,-140.991 289.6708,-140.9909"/>
</g>
<!-- ModalPage -->
<g id="node3" class="node">
<title>ModalPage</title>
<polygon fill="#ffffb3" stroke="#000000" points="255.762,-122 176.238,-122 176.238,-86 255.762,-86 255.762,-122"/>
<text text-anchor="middle" x="216" y="-99.8" font-family="Times,serif" font-size="14.00" fill="#000000">ModalPage</text>
</g>
<!-- ModalPage&#45;&gt;AppModule -->
<g id="edge3" class="edge">
<title>ModalPage&#45;&gt;AppModule</title>
<path fill="none" stroke="#000000" d="M242.5263,-122.1061C242.5263,-122.1061 242.5263,-140.991 242.5263,-140.991"/>
<polygon fill="#000000" stroke="#000000" points="239.0264,-140.9909 242.5263,-150.991 246.0264,-140.991 239.0264,-140.9909"/>
</g>
<!-- AppComponent  -->
<g id="node6" class="node">
<title>AppComponent </title>
<polygon fill="#80b1d3" stroke="#000000" points="325.439,-252 216.561,-252 216.561,-216 325.439,-216 325.439,-252"/>
<text text-anchor="middle" x="271" y="-229.8" font-family="Times,serif" font-size="14.00" fill="#000000">AppComponent </text>
</g>
<!-- AppModule&#45;&gt;AppComponent  -->
<g id="edge5" class="edge">
<title>AppModule&#45;&gt;AppComponent </title>
<path fill="none" stroke="#000000" stroke-dasharray="1,5" d="M271,-187.1061C271,-187.1061 271,-205.991 271,-205.991"/>
<polygon fill="#000000" stroke="#000000" points="267.5001,-205.9909 271,-215.991 274.5001,-205.991 267.5001,-205.9909"/>
</g>
<!-- AppRoutingModule -->
<g id="node5" class="node">
<title>AppRoutingModule</title>
<polygon fill="#8dd3c7" stroke="#000000" points="152.2744,-122 149.2744,-126 128.2744,-126 125.2744,-122 23.7256,-122 23.7256,-86 152.2744,-86 152.2744,-122"/>
<text text-anchor="middle" x="88" y="-99.8" font-family="Times,serif" font-size="14.00" fill="#000000">AppRoutingModule</text>
</g>
<!-- AppRoutingModule&#45;&gt;AppModule -->
<g id="edge4" class="edge">
<title>AppRoutingModule&#45;&gt;AppModule</title>
<path fill="none" stroke="#000000" d="M88,-122.1061C88,-141.3391 88,-169 88,-169 88,-169 219.0161,-169 219.0161,-169"/>
<polygon fill="#000000" stroke="#000000" points="219.0161,-172.5001 229.0161,-169 219.0161,-165.5001 219.0161,-172.5001"/>
</g>
</g>
</svg>
